HIERARCHY
ROOT RootJoint
{
    OFFSET   0.000000   0.000000   0.000000
    CHANNELS 6 Xposition Yposition Zposition Xrotation Yrotation Zrotation
    JOINT pelvis_lowerback
    {
        OFFSET   0.000000   0.093605   0.000000
        CHANNELS 3 Xrotation Yrotation Zrotation
        JOINT lowerback_torso
        {
            OFFSET   0.000000   0.100000   0.000000
            CHANNELS 3 Xrotation Yrotation Zrotation
            JOINT torso_head
            {
                OFFSET   0.000000   0.282350   0.000000
                CHANNELS 3 Xrotation Yrotation Zrotation
                End Site
                {
                    OFFSET   0.000000   0.192650   0.000000
                }
            }
            JOINT rTorso_Clavicle
            {
                OFFSET  -0.001000   0.157500   0.000000
                CHANNELS 3 Xrotation Yrotation Zrotation
                JOINT rShoulder
                {
                    OFFSET  -0.117647   0.000000   0.000000
                    CHANNELS 3 Xrotation Yrotation Zrotation
                    JOINT rElbow
                    {
                        OFFSET  -0.245000   0.000000   0.000000
                        CHANNELS 3 Xrotation Yrotation Zrotation
                        JOINT rWrist
                        {
                            OFFSET  -0.240000   0.000000   0.000000
                            CHANNELS 3 Xrotation Yrotation Zrotation
                            End Site
                            {
                                OFFSET  -0.116353  -0.002500   0.000000
                            }
                        }
                    }
                }
            }
            JOINT lTorso_Clavicle
            {
                OFFSET   0.001000   0.157500   0.000000
                CHANNELS 3 Xrotation Yrotation Zrotation
                JOINT lShoulder
                {
                    OFFSET   0.117647   0.000000   0.000000
                    CHANNELS 3 Xrotation Yrotation Zrotation
                    JOINT lElbow
                    {
                        OFFSET   0.245000   0.000000   0.000000
                        CHANNELS 3 Xrotation Yrotation Zrotation
                        JOINT lWrist
                        {
                            OFFSET   0.240000   0.000000   0.000000
                            CHANNELS 3 Xrotation Yrotation Zrotation
                            End Site
                            {
                                OFFSET   0.116353  -0.002500   0.000000
                            }
                        }
                    }
                }
            }
        }
    }
    JOINT rHip
    {
        OFFSET  -0.100000  -0.051395   0.000000
        CHANNELS 3 Xrotation Yrotation Zrotation
        JOINT rKnee
        {
            OFFSET   0.000000  -0.410000   0.000000
            CHANNELS 3 Xrotation Yrotation Zrotation
            JOINT rAnkle
            {
                OFFSET   0.000000  -0.390000   0.000000
                CHANNELS 3 Xrotation Yrotation Zrotation
                JOINT rToeJoint
                {
                    OFFSET   0.000000  -0.050000   0.130000
                    CHANNELS 3 Xrotation Yrotation Zrotation
                    End Site
                    {
                        OFFSET  -0.010000   0.002000   0.060000
                    }
                }
            }
        }
    }
    JOINT lHip
    {
        OFFSET   0.100000  -0.051395   0.000000
        CHANNELS 3 Xrotation Yrotation Zrotation
        JOINT lKnee
        {
            OFFSET   0.000000  -0.410000   0.000000
            CHANNELS 3 Xrotation Yrotation Zrotation
            JOINT lAnkle
            {
                OFFSET   0.000000  -0.390000   0.000000
                CHANNELS 3 Xrotation Yrotation Zrotation
                JOINT lToeJoint
                {
                    OFFSET   0.000000  -0.050000   0.130000
                    CHANNELS 3 Xrotation Yrotation Zrotation
                    End Site
                    {
                        OFFSET   0.010000   0.002000   0.060000
                    }
                }
            }
        }
    }
}
MOTION
Frames: 12
Frame Time:   0.008333
 -2.376719   0.925631   3.975860   0.000000   0.000000   0.000000   0.000000   0.000000   0.000000   0.000000   0.000000   0.000000   0.000000   0.000000   0.000000   0.000000   0.000000   0.000000   0.000000   0.000000   0.000000   0.000000   0.000000   0.000000   0.000000   0.000000   0.000000   0.000000   0.000000   0.000000   0.000000   0.000000   0.000000   0.000000   0.000000   0.000000   0.000000   0.000000   0.000000   0.000000   0.000000   0.000000   0.000000   0.000000   0.000000   0.000000   0.000000   0.000000   0.000000   0.000000   0.000000   0.000000   0.000000   0.000000   0.000000   0.000000   0.000000   0.000000   0.000000   0.000000   0.000000   0.000000   0.000000
 -2.376544   0.926062   3.971023   1.191550  -0.271843  -0.274114  -0.811672   0.170054   0.304847   0.963816  -0.269534   0.124385  -1.276910   0.131969  -0.130585   0.520325  -0.181045   0.415800   1.173984   0.167009   1.868709   0.048662   2.228102  -0.059881   0.200724  -1.075352  -2.700214   0.411114   0.337023  -0.088770   1.333686   1.201979  -2.136949   0.057711  -3.114244   0.084932   0.083659   0.660254   1.816683  -2.870220  -0.203800   0.163610   2.881449   0.002648  -0.011721  -1.055263  -0.142594   0.231301  -0.168450   0.000160   0.000890  -2.537218   0.239709   0.355218   1.631356  -0.000994  -0.000255  -0.733929   0.499260   0.000540   0.811154  -0.000458   0.003400
 -2.376111   0.926751   3.964142   2.251126  -0.533205  -0.609022  -1.094954   0.317864   0.675921   2.252882  -0.509110   0.347040  -2.452073   0.248423  -0.256556   1.025329  -0.170944   1.507405   2.305509   0.538867   4.277428   0.116679   4.401545  -0.119353   0.470661  -1.527257  -4.786388   0.826835   0.549910  -0.771961   2.703529   2.225901  -4.798173   0.135925  -6.106603   0.169800   0.253988   0.576165   3.012648  -5.815381  -0.424792   0.252192   5.722612   0.007205  -0.020881  -2.026155  -0.287284   0.442619  -0.309661   0.000077   0.001442  -5.317682   0.455876   0.819576   3.180383  -0.002083  -0.000061  -1.413346   0.972090   0.011162   1.571972  -0.000884   0.005917
 -2.375416   0.927355   3.956078   3.249053  -0.733352  -0.976451  -1.036137   0.459561   1.100011   3.727270  -0.715127   0.651348  -3.497937   0.356780  -0.378578   1.486528   0.043621   3.035125   3.330908   1.079048   6.896361   0.186706   6.479130  -0.170281   0.762089  -1.617351  -6.058793   1.211364   0.567764  -1.813142   4.100641   3.027218  -7.790779   0.216705  -8.946006   0.244961   0.448556   0.149954   3.587587  -8.716908  -0.631929   0.243934   8.317665   0.012671  -0.025644  -2.933896  -0.428354   0.635503  -0.446753  -0.000151   0.001749  -8.272729   0.637386   1.343919   4.554006  -0.002895   0.001024  -2.050207   1.413398   0.027676   2.264569  -0.001111   0.007924
 -2.374523   0.927641   3.947451   4.232016  -0.852589  -1.371155  -0.752793   0.600460   1.575293   5.282673  -0.890231   1.026094  -4.436275   0.459274  -0.493199   1.887633   0.433459   4.801621   4.246216   1.762461   9.578446   0.250479   8.462805  -0.210875   1.077971  -1.422822  -6.730232   1.544724   0.407880  -3.045601   5.517271   3.611915 -10.991671   0.291183 -11.641797   0.307092   0.662066  -0.534108   3.730521 -11.538298  -0.816943   0.146427  10.676434   0.018429  -0.026848  -3.784755  -0.564616   0.811586  -0.587267  -0.000484   0.001864 -11.369335   0.781734   1.909019   5.765622  -0.003386   0.002854  -2.648134   1.825041   0.048229   2.891293  -0.001143   0.009620
 -2.373517   0.927437   3.938747   5.226906  -0.886732  -1.792606  -0.333335   0.743498   2.097807   6.845535  -1.033747   1.462397  -5.282543   0.556514  -0.597731   2.216033   0.952093   6.684154   5.050733   2.550347  12.236641   0.303978  10.351615  -0.240566   1.415144  -1.008623  -6.995670   1.812589   0.115693  -4.363145   6.942767   4.011316 -14.318004   0.355082 -14.196846   0.354522   0.888077  -1.414918   3.602015 -14.250786  -0.975445  -0.027685  12.830349   0.024067  -0.025563  -4.581996  -0.695460   0.972438  -0.729116  -0.000881   0.001807 -14.574844   0.887336   2.502181   6.839341  -0.003609   0.005116  -3.209263   2.208963   0.071509   3.458449  -0.001028   0.011068
 -2.372496   0.926595   3.930344   6.229485  -0.846422  -2.235612   0.165169   0.899200   2.655092   8.373214  -1.136576   1.940271  -6.047828   0.648339  -0.688405   2.468663   1.544677   8.615525   5.749135   3.397986  14.828218   0.345496  12.141338  -0.259610   1.761643  -0.449759  -6.981599   2.013992  -0.244254  -5.735057   8.319828   4.252256 -17.618987   0.405237 -16.607254   0.385777   1.114056  -2.409098   3.250524 -16.815434  -1.104415  -0.267881  14.814011   0.029281  -0.022831  -5.328440  -0.820490   1.119546  -0.870419  -0.001302   0.001620 -17.827292   0.951627   3.108494   7.788458  -0.003640   0.007395  -3.735815   2.567158   0.096664   3.971192  -0.000831   0.012213
 -2.371041   0.924451   3.921291   6.879596  -0.982388  -2.475921   1.323877   1.186824   3.054862   9.705203  -0.941092   2.430331  -6.608928   0.751714  -0.863365   2.428173   2.327422   9.881758   6.024345   4.165838  17.096271   0.356085  13.741756  -0.261655   2.025508   0.096658  -5.654073   1.906554  -0.674604  -6.793666   9.477075   3.831259 -20.679842   0.434496 -18.964007   0.402732   1.155214  -2.968040   2.251321 -19.392108  -1.246292  -0.802126  17.427609   0.038032  -0.028485  -5.716056  -0.977225   1.508800  -0.855888  -0.000998   0.001236 -21.400450   1.089235   3.538965  11.095342  -0.004136   0.014810  -4.716677   2.913994   0.262749   3.928920  -0.000594   0.009528
 -2.369449   0.921202   3.912840   7.382305  -1.293466  -2.625526   2.519596   1.558714   3.411573  11.049097  -0.665595   2.831615  -7.082279   0.857962  -1.010155   2.307765   3.177083  10.818419   6.219849   4.959996  19.025943   0.353474  15.266210  -0.258035   2.272655   0.724264  -4.499984   1.753361  -1.166633  -7.688721  10.497008   3.313832 -23.446063   0.447330 -21.207043   0.407922   1.189268  -3.664035   1.330683 -21.826095  -1.343082  -1.426206  19.929714   0.043970  -0.037415  -6.064326  -1.128709   1.870184  -0.788267  -0.000565   0.000595 -24.724956   1.197959   3.960343  14.678415  -0.004992   0.015554  -5.614269   3.237284   0.423622   3.926087  -0.000468   0.007612
 -2.367835   0.916920   3.905189   7.819452  -1.693883  -2.720346   3.668959   1.947563   3.722274  12.330033  -0.368930   3.159387  -7.504944   0.959504  -1.137361   2.145647   4.006739  11.550745   6.361282   5.724955  20.715457   0.342450  16.703860  -0.248665   2.511003   1.392399  -3.619559   1.587261  -1.641274  -8.464552  11.413130   2.784892 -25.969290   0.447433 -23.310825   0.402183   1.216834  -4.394639   0.540813 -24.139163  -1.402879  -2.085166  22.251613   0.046851  -0.045975  -6.388228  -1.274300   2.205656  -0.723599  -0.000221   0.000041 -27.814298   1.268614   4.399237  18.303844  -0.006916   0.012881  -6.449330   3.536246   0.578467   3.935059  -0.000396   0.006113
 -2.366241   0.911656   3.898375   8.217513  -2.134215  -2.776629   4.746370   2.325332   3.986678  13.528936  -0.077908   3.428815  -7.893055   1.055145  -1.251826   1.970317   4.772037  12.155340   6.468466   6.429599  22.230809   0.326031  18.046209  -0.234725   2.731712   2.033730  -2.929794   1.425055  -2.068299  -9.154736  12.246854   2.275416 -28.290132   0.438128 -25.271928   0.388006   1.232768  -5.083422  -0.157634 -26.339771  -1.428978  -2.755412  24.400942   0.047381  -0.052739  -6.690653  -1.413192   2.517340  -0.666437   0.000026  -0.000375 -30.661484   1.307309   4.853843  21.820247  -0.009652   0.009287  -7.227298   3.813123   0.727298   3.948445  -0.000354   0.004917
 -2.364688   0.905451   3.892349   8.588243  -2.579939  -2.806589   5.746354   2.676986   4.211364  14.646131   0.192844   3.654030  -8.254680   1.144902  -1.356991   1.800701   5.455601  12.677829   6.555631   7.062303  23.613927   0.306339  19.291824  -0.217796   2.931719   2.608591  -2.354991   1.275760  -2.440255  -9.781638  13.012798   1.795841 -30.437993   0.422067 -27.095037   0.368016   1.236932  -5.700373  -0.799645 -28.433505  -1.425008  -3.422844  26.392497   0.046298  -0.057233  -6.973114  -1.545143   2.807036  -0.616048   0.000196  -0.000663 -33.272092   1.319369   5.316399  25.139814  -0.012596   0.006236  -7.952702   4.069731   0.870050   3.962778  -0.000326   0.003957
